<svg xmlns="http://www.w3.org/2000/svg" xmlns:xlink="http://www.w3.org/1999/xlink" width="214" height="75.911" viewBox="0 0 214 75.911"><defs><filter id="a" x="0" y="6.911" width="117" height="69" filterUnits="userSpaceOnUse"><feOffset dy="5" input="SourceAlpha"/><feGaussianBlur stdDeviation="5" result="b"/><feFlood flood-opacity="0.078"/><feComposite operator="in" in2="b"/><feComposite in="SourceGraphic"/></filter><filter id="c" x="97" y="6.911" width="117" height="69" filterUnits="userSpaceOnUse"><feOffset dy="5" input="SourceAlpha"/><feGaussianBlur stdDeviation="5" result="d"/><feFlood flood-opacity="0.078"/><feComposite operator="in" in2="d"/><feComposite in="SourceGraphic"/></filter><radialGradient id="e" cx="0.5" cy="0.501" r="2.317" gradientTransform="translate(0.397 0.382) scale(0.207 0.237)" gradientUnits="objectBoundingBox"><stop offset="0" stop-color="#323232" stop-opacity="0.922"/><stop offset="0.236" stop-color="#272727" stop-opacity="0.643"/><stop offset="0.643" stop-color="#0b0b0b" stop-opacity="0.169"/><stop offset="0.785" stop-opacity="0"/></radialGradient><linearGradient id="f" x1="0.5" y1="0.809" x2="0.5" y2="-0.039" gradientUnits="objectBoundingBox"><stop offset="0" stop-color="#3d6a06"/><stop offset="0.16" stop-color="#588710"/><stop offset="0.33" stop-color="#6d9d18"/><stop offset="0.513" stop-color="#7bae1e"/><stop offset="0.721" stop-color="#84b721"/><stop offset="1" stop-color="#87ba22"/></linearGradient><linearGradient id="g" x1="0.5" y1="1" x2="0.5" gradientUnits="objectBoundingBox"><stop offset="0" stop-color="#bbe882"/><stop offset="0.145" stop-color="#bee988" stop-opacity="0.918"/><stop offset="0.344" stop-color="#c8ec9a" stop-opacity="0.804"/><stop offset="0.576" stop-color="#d8f2b7" stop-opacity="0.671"/><stop offset="0.83" stop-color="#eef9e0" stop-opacity="0.525"/><stop offset="1" stop-color="#fff" stop-opacity="0.431"/></linearGradient><linearGradient id="h" x1="0.5" y1="0.963" x2="0.5" y2="0.061" gradientUnits="objectBoundingBox"><stop offset="0" stop-color="#48790b"/><stop offset="0.822" stop-color="#fff" stop-opacity="0.431"/></linearGradient><linearGradient id="i" x1="0.5" y1="0.964" x2="0.5" y2="0.377" gradientUnits="objectBoundingBox"><stop offset="0" stop-color="#5e7814"/><stop offset="0.509" stop-color="#8aa21f"/><stop offset="1" stop-color="#b1c628"/></linearGradient><linearGradient id="j" x1="0.478" y1="0.862" x2="0.506" y2="0.376" gradientUnits="objectBoundingBox"><stop offset="0" stop-color="#82af10"/><stop offset="0.822" stop-color="#fff" stop-opacity="0"/></linearGradient><linearGradient id="k" x1="0.5" y1="0.919" x2="0.5" y2="0.119" gradientUnits="objectBoundingBox"><stop offset="0" stop-color="#5e7814"/><stop offset="0.142" stop-color="#758e1a"/><stop offset="0.345" stop-color="#8fa620"/><stop offset="0.553" stop-color="#a2b824"/><stop offset="0.768" stop-color="#adc327"/><stop offset="1" stop-color="#b1c628"/></linearGradient><linearGradient id="l" x1="0.5" y1="0.978" x2="0.5" y2="-0.022" gradientUnits="objectBoundingBox"><stop offset="0" stop-color="#fff"/><stop offset="1" stop-color="#fff" stop-opacity="0"/></linearGradient><radialGradient id="m" cx="0.499" cy="0.502" r="0.5" gradientTransform="translate(1.461 -0.03) scale(0.92 1.057)" gradientUnits="objectBoundingBox"><stop offset="0" stop-color="#323232"/><stop offset="0.293" stop-color="#252525" stop-opacity="0.671"/><stop offset="0.828" stop-color="#040404" stop-opacity="0.071"/><stop offset="0.89" stop-opacity="0"/></radialGradient><radialGradient id="n" cx="0.499" cy="0.502" r="0.5" gradientTransform="translate(1.187 -0.03) scale(0.92 1.057)" xlink:href="#m"/></defs><g transform="translate(-58 -75.089)"><g transform="matrix(1, 0, 0, 1, 58, 75.09)" filter="url(#a)"><rect width="87" height="39" rx="2" transform="translate(15 16.91)" fill="#fff"/></g><g transform="translate(82 100)"><g transform="translate(0)"><path d="M702.2,14.547a.422.422,0,0,0,.4.408h1.73a.422.422,0,0,0,.4-.408V9.857a1.877,1.877,0,0,1,1.794-1.343c1.07,0,1.579.705,1.579,1.816v4.226a.4.4,0,0,0,.4.4h1.6a.416.416,0,0,0,.411-.4V10.21c0-.383-.021-.813-.021-.813a2.142,2.142,0,0,1,1.8-.9c1.067,0,1.607.705,1.607,1.816v4.232a.407.407,0,0,0,.4.408h1.733a.4.4,0,0,0,.4-.4V10.465c0-2.245-1-4.272-3.739-4.272a4.349,4.349,0,0,0-3.012,1.325,3.371,3.371,0,0,0-2.779-1.325,3.888,3.888,0,0,0-2.865,1.264l-.294-.807a.356.356,0,0,0-.362-.233h-.791a.409.409,0,0,0-.414.4v7.729Zm16.642,2.717c0,1.239-.54,1.944-1.5,1.944a2.75,2.75,0,0,1-1.264-.426.361.361,0,0,0-.5.092c0,.006-.006.009-.009.015l-.705,1.368a.4.4,0,0,0,.086.494,4.146,4.146,0,0,0,2.524.834c2.263,0,3.969-1.5,3.969-4.315V6.815a.4.4,0,0,0-.4-.4h-1.8a.4.4,0,0,0-.4.4l0,10.449Zm5.168-2.717a.422.422,0,0,0,.4.408h1.73a.422.422,0,0,0,.4-.408V9.857a1.874,1.874,0,0,1,1.794-1.343c1.073,0,1.579.705,1.579,1.816v4.226a.4.4,0,0,0,.4.4h1.607a.417.417,0,0,0,.4-.4V10.21c0-.383-.021-.813-.021-.813a2.141,2.141,0,0,1,1.794-.9c1.067,0,1.6.705,1.6,1.816v4.232a.4.4,0,0,0,.4.4h1.73a.4.4,0,0,0,.4-.4V10.471c0-2.245-1-4.275-3.739-4.275A4.348,4.348,0,0,0,731.5,7.52,3.369,3.369,0,0,0,728.723,6.2a3.9,3.9,0,0,0-2.865,1.264l-.291-.807a.356.356,0,0,0-.362-.233h-.794a.4.4,0,0,0-.4.4l0,7.723Zm16.638,0a.422.422,0,0,0,.4.408h1.794a.422.422,0,0,0,.4-.408V.4a.421.421,0,0,0-.4-.4h-1.794a.419.419,0,0,0-.4.4V14.547h0Z" transform="translate(-680.664)" fill="#f0684e"/><circle cx="1.785" cy="1.785" r="1.785" transform="translate(13.529 3.279)" fill="#f0684e"/><path d="M39.4,60.675a1.487,1.487,0,1,0-1.487-1.487h0A1.491,1.491,0,0,0,39.4,60.675ZM66.143,70.4a1.487,1.487,0,1,0-1.487-1.487h0A1.487,1.487,0,0,0,66.143,70.4ZM1.779,59.221h8.238A1.778,1.778,0,0,1,11.8,61v0a1.778,1.778,0,0,1-1.776,1.779H1.779A1.778,1.778,0,0,1,0,61H0a1.78,1.78,0,0,1,1.779-1.779Z" transform="translate(0 -55.93)" fill="#f0684e"/></g><circle cx="1.785" cy="1.785" r="1.785" transform="translate(0 8.931)" fill="#f0684e"/><g transform="translate(0 8.94)"><path d="M174.479,291.5h8.241a1.78,1.78,0,0,1,1.779,1.779v0a1.78,1.78,0,0,1-1.779,1.779h-8.241a1.78,1.78,0,0,1-1.779-1.779v0A1.78,1.78,0,0,1,174.479,291.5Z" transform="translate(-167.403 -291.5)" fill="#f0684e"/><circle cx="1.785" cy="1.785" r="1.785" transform="translate(13.529 5.625)" fill="#f0684e"/><path d="M1.779,474.9H10.02a1.78,1.78,0,0,1,1.779,1.779v0a1.78,1.78,0,0,1-1.779,1.779H1.779A1.78,1.78,0,0,1,0,476.682v0A1.78,1.78,0,0,1,1.779,474.9Z" transform="translate(0 -469.275)" fill="#f0684e"/><path d="M1413.426,593.343a1.225,1.225,0,0,1,.988-.472,1.569,1.569,0,0,1,1.57,1.57v.028a1.6,1.6,0,0,1-1.57,1.622h-.006a1.471,1.471,0,0,1-.981-.377v.3H1413V591.3h.426Zm0,1.874a1.287,1.287,0,0,0,.975.485,1.161,1.161,0,0,0,1.144-1.178V594.5a1.179,1.179,0,0,0-1.144-1.233,1.128,1.128,0,0,0-.975.577Zm3.389-2.27.865,2.6.926-2.6h.457l-1.665,4.469-.362-.144.411-1.1-1.092-3.22Zm14.961,3.334c-.067.4-.107.485-.948,1.138l-.2-.273c.644-.528.721-.586.785-.935l.607-3.426.39-.055Zm.479-4.87.39-.052-.135.761-.383.052Zm.672,3.757c0,.058-.012.12-.012.181,0,.276.107.417.561.417a2.739,2.739,0,0,0,1.159-.316l.1.288a2.82,2.82,0,0,1-1.294.362c-.616,0-.9-.242-.9-.739a2.27,2.27,0,0,1,.034-.322l.193-1.1a1.3,1.3,0,0,1,1.42-1.242c.531,0,.868.27.868.761,0,.525-.35.807-1.245,1.058l-.8.221Zm1.76-1.733c0-.294-.2-.432-.54-.432-.586,0-.9.3-1.009.948l-.074.414.761-.2c.613-.159.862-.38.862-.733h0Zm.742,2.221a.817.817,0,0,1,.015-.126l.432-2.454h-.626l.052-.322h.632l.141-.8.383-.052-.147.853h.981l-.074.322h-.972l-.423,2.414a.785.785,0,0,0-.015.12c0,.126.064.159.221.159a1.769,1.769,0,0,0,.65-.153l.1.255a1.694,1.694,0,0,1-.816.221c-.322,0-.531-.138-.531-.436Zm-13.734-2.567a3.1,3.1,0,0,1,1.322-.411.529.529,0,0,1,.573.414,2.86,2.86,0,0,1,1.343-.414c.448,0,.6.294.6.65a1.421,1.421,0,0,1-.037.322l-.414,2.368h-.807l.411-2.334a.433.433,0,0,0,0-.089c0-.086-.043-.138-.169-.138a2.689,2.689,0,0,0-.975.383l-.383,2.178h-.807l.426-2.328a.434.434,0,0,0,0-.089c0-.086-.043-.138-.169-.138a2.6,2.6,0,0,0-.975.383l-.383,2.178h-.8l.432-2.448m7.275,2.451h-.684v-.362a1.55,1.55,0,0,1-1.07.432.664.664,0,0,1-.761-.748,2.6,2.6,0,0,1,.034-.343l.169-.954c.153-.889.362-1.365,1.622-1.365a5.114,5.114,0,0,1,1.236.208Zm-.344-2.616a2.345,2.345,0,0,0-.463-.046c-.518,0-.62.218-.69.644l-.2,1.15a.335.335,0,0,0,0,.08c0,.12.074.181.221.181a1.556,1.556,0,0,0,.874-.491Zm1.411-.6.828-.113-.586,3.328h-.807Zm.248-1.4.825-.11-.159.914-.825.12Zm1.346,0,.825-.11-.834,4.726H1430Z" transform="translate(-1369.663 -582.105)" fill="#f0684e"/></g></g><g transform="matrix(1, 0, 0, 1, 58, 75.09)" filter="url(#c)"><rect width="87" height="39" rx="2" transform="translate(112 16.91)" fill="#fff"/></g><g transform="translate(90.698 53.249)"><ellipse cx="8.242" cy="1.702" rx="8.242" ry="1.702" transform="translate(88.827 68.087)" fill="url(#e)"/><path d="M110.647,65.973h5.5c-.336-7.148-2.416-29.956-5.925-44.133C110.859,31.573,111.554,63.918,110.647,65.973Z" transform="translate(-16.49)" fill="url(#f)"/><path d="M110.647,66.23h2.245c.276-16.138-2.668-44.133-2.668-44.133C110.859,31.83,111.554,64.175,110.647,66.23Z" transform="translate(-16.49 -0.195)" opacity="0.28" fill="url(#g)"/><path d="M110.85,64.759l2.336.68s-.154-5.744,1.41-8.343c.452-2.971-3.261-30.137-4.25-34.75-.041-.169-.081-.338-.123-.5.579,8.877,1.208,36.556.626,42.919Z" transform="translate(-16.49 -0.001)" opacity="0.33" fill="url(#h)"/><g transform="translate(88.474 47.353)"><path d="M94.006,150.133l3.476.151c.083-6.745-2.358-18.409-9.008-22.943,3.386,4.2,5.834,9.341,5.532,22.792Z" transform="translate(-88.474 -127.341)" fill="url(#i)"/><path d="M90.414,129.87c3.153,4.109,5.379,9.371,5.09,22.229l2.376.1c.083-2.595.144-16.277-7.466-22.332Z" transform="translate(-89.945 -129.258)" opacity="0.17" fill="url(#j)"/></g><g transform="translate(96.713 55.986)"><path d="M126.441,177.428c.108.484-3.476.831-3.6.725s-2.6-16.656,9.053-14.993C125.579,163.432,125.1,172.093,126.441,177.428Z" transform="translate(-122.542 -163.043)" fill="url(#k)"/><path d="M122.843,182.533a10.216,10.216,0,0,0,2.268-.2c-.147-1.4-.852-9.01.844-13.509-4.705,3.727-3.2,13.632-3.111,13.713Z" transform="translate(-122.543 -167.423)" opacity="0.08" fill="url(#l)"/></g><g transform="translate(94.193 61.042)"><ellipse cx="1.602" cy="1.474" rx="1.602" ry="1.474" transform="translate(2.35)" opacity="0.47" fill="url(#m)"/><ellipse cx="1.602" cy="1.474" rx="1.602" ry="1.474" transform="translate(0)" opacity="0.47" fill="url(#n)"/><circle cx="0.918" cy="0.918" r="0.918" transform="translate(0.683 0.556)" fill="#fff"/><circle cx="0.918" cy="0.918" r="0.918" transform="translate(2.988 0.556)" fill="#fff"/></g><g transform="translate(89.26 64.945)"><path d="M91.724,203.143l1.3,2.237h.725m1.6.967h1.572L94.6,200.09m9.854,5.864h1.028l.755-4.836m.846,3.567h.877l.423-1.783" transform="translate(-91.724 -200.09)" fill="#a0cb29"/></g></g><text transform="translate(202 118)" fill="#3d3d3d" font-size="20" font-family="CeraPro-Bold, Cera Pro" font-weight="700"><tspan x="0" y="0">Twig</tspan></text></g></svg>