<svg xmlns="http://www.w3.org/2000/svg" width="67.216" height="28.129" viewBox="0 0 67.216 28.129"><g transform="translate(-93 -51)"><path d="M7.021-12.5q-3.315-.043-3.315-3.348v-3.24q0-2.181-1.685-2.289v-1.253q1.685-.108,1.685-2.333v-3.153q0-3.348,3.315-3.391v1.382Q5.3-30.083,5.3-27.988v3.164q0,2.268-1.62,2.786v.043q1.62.486,1.62,2.765v3.121A2.923,2.923,0,0,0,5.688-14.4a1.611,1.611,0,0,0,1.334.535Z" transform="translate(90.979 88.509)" fill="#e9e9e9"/><path d="M6.45-21.357q-1.688.108-1.688,2.294v3.247q0,3.312-3.312,3.355v-1.364a1.626,1.626,0,0,0,1.337-.541,2.87,2.87,0,0,0,.4-1.71V-19.2q0-2.284,1.613-2.771v-.043q-1.613-.519-1.613-2.792v-3.171q0-2.1-1.732-2.143v-1.385q3.312.043,3.312,3.4v3.16q0,2.229,1.688,2.338Z" transform="translate(153.766 88.509)" fill="#e9e9e9"/><path d="M2.52-4.143a1.914,1.914,0,0,1-1.444-.568A2.111,2.111,0,0,1,.527-6.24,2.32,2.32,0,0,1,1.11-7.9,2.042,2.042,0,0,1,2.666-8.52a1.9,1.9,0,0,1,1.456.557A2.193,2.193,0,0,1,4.646-6.4a2.289,2.289,0,0,1-.58,1.646A2.036,2.036,0,0,1,2.52-4.143Zm.111-3.346q-.855,0-.855,1.189,0,1.125.814,1.125.832,0,.832-1.172Q3.422-7.488,2.631-7.488ZM8.654-8.4,3.182,0H1.752L7.213-8.4Zm-.9,8.52A1.914,1.914,0,0,1,6.308-.451,2.111,2.111,0,0,1,5.76-1.98a2.32,2.32,0,0,1,.583-1.664A2.042,2.042,0,0,1,7.9-4.26a1.913,1.913,0,0,1,1.459.551A2.179,2.179,0,0,1,9.879-2.15,2.31,2.31,0,0,1,9.3-.5,2.026,2.026,0,0,1,7.752.117Zm.094-3.346Q7-3.229,7-2.039,7-.914,7.822-.914t.832-1.172a1.39,1.39,0,0,0-.223-.844A.7.7,0,0,0,7.846-3.229Z" transform="translate(99 70.52)" fill="#e9e9e9"/><path d="M2.52-4.143a1.914,1.914,0,0,1-1.444-.568A2.111,2.111,0,0,1,.527-6.24,2.32,2.32,0,0,1,1.11-7.9,2.042,2.042,0,0,1,2.666-8.52a1.9,1.9,0,0,1,1.456.557A2.193,2.193,0,0,1,4.646-6.4a2.289,2.289,0,0,1-.58,1.646A2.036,2.036,0,0,1,2.52-4.143Zm.111-3.346q-.855,0-.855,1.189,0,1.125.814,1.125.832,0,.832-1.172Q3.422-7.488,2.631-7.488ZM8.654-8.4,3.182,0H1.752L7.213-8.4Zm-.9,8.52A1.914,1.914,0,0,1,6.308-.451,2.111,2.111,0,0,1,5.76-1.98a2.32,2.32,0,0,1,.583-1.664A2.042,2.042,0,0,1,7.9-4.26a1.913,1.913,0,0,1,1.459.551A2.179,2.179,0,0,1,9.879-2.15,2.31,2.31,0,0,1,9.3-.5,2.026,2.026,0,0,1,7.752.117Zm.094-3.346Q7-3.229,7-2.039,7-.914,7.822-.914t.832-1.172a1.39,1.39,0,0,0-.223-.844A.7.7,0,0,0,7.846-3.229Z" transform="translate(143 70.52)" fill="#e9e9e9"/><g transform="translate(94 35)"><path d="M21.741,5.416a.273.273,0,0,0-.247-.229c-.1-.009-2.1-.039-2.1-.039s-1.675-1.626-1.84-1.792a.684.684,0,0,0-.614-.078l-.841.261a5.9,5.9,0,0,0-.4-.99A2.836,2.836,0,0,0,13.167.808h0c-.073,0-.146.007-.219.013-.031-.037-.062-.074-.1-.11A2.211,2.211,0,0,0,11.094,0C9.731.04,8.374,1.024,7.274,2.772a10.973,10.973,0,0,0-1.53,3.971l-2.683.831c-.79.248-.815.272-.918,1.017C2.066,9.154,0,25.133,0,25.133l17.317,3,7.506-1.866S21.761,5.558,21.741,5.416ZM15.228,3.807l-1.344.416a7.441,7.441,0,0,0-.414-2.479C14.5,1.94,15.013,3.11,15.228,3.807Zm-2.25.7-2.891.9a6.853,6.853,0,0,1,1.46-2.834,2.917,2.917,0,0,1,.982-.715A6.5,6.5,0,0,1,12.978,4.5ZM11.121.908a1.39,1.39,0,0,1,.819.215,3.944,3.944,0,0,0-1.058.824A7.939,7.939,0,0,0,9.089,5.707l-2.375.735C7.183,4.254,9.018.969,11.121.908Z" transform="translate(20 16)" fill="#95bf47"/><path d="M41.118,8.87c-.1-.009-2.1-.039-2.1-.039S37.339,7.2,37.173,7.039a.409.409,0,0,0-.233-.107V31.81l7.5-1.865S41.384,9.242,41.365,9.1A.274.274,0,0,0,41.118,8.87Z" transform="translate(0.377 12.318)" fill="#5e8e3e"/><path d="M18.385,18.962l-.872,3.261a4.951,4.951,0,0,0-2.125-.37c-1.69.107-1.708,1.173-1.691,1.441.092,1.459,3.929,1.777,4.145,5.193.169,2.688-1.426,4.526-3.724,4.671a5.581,5.581,0,0,1-4.277-1.453l.585-2.486A5.291,5.291,0,0,0,13.178,30.3a1.081,1.081,0,0,0,1.056-1.16c-.12-1.9-3.245-1.79-3.442-4.916-.166-2.631,1.562-5.3,5.374-5.537A4.687,4.687,0,0,1,18.385,18.962Z" transform="translate(14.773 6.084)" fill="#fff"/></g></g></svg>